<?xml version="1.0" encoding="utf-8"?>
<!-- Generator: Adobe Illustrator 17.0.0, SVG Export Plug-In . SVG Version: 6.00 Build 0)  -->
<!DOCTYPE svg PUBLIC "-//W3C//DTD SVG 1.1//EN" "http://www.w3.org/Graphics/SVG/1.1/DTD/svg11.dtd">
<svg version="1.1" id="Layer_1" xmlns="http://www.w3.org/2000/svg" xmlns:xlink="http://www.w3.org/1999/xlink" x="0px" y="0px"
	 width="60px" height="60px" viewBox="0 0 60 60" style="enable-background:new 0 0 60 60;" xml:space="preserve">
<style type="text/css">
	.st0{fill:none;stroke:#FFFFFF;stroke-width:3;stroke-linecap:round;stroke-linejoin:round;stroke-miterlimit:10;}
</style>
<g>
	<path class="st0" d="M55.9,51.2c0,1.2-1,2.2-2.2,2.2H6.4c-1.2,0-2.2-1-2.2-2.2V15.3c0-1.2,1-2.2,2.2-2.2h47.2c1.2,0,2.2,1,2.2,2.2
		V51.2z"/>
	<line class="st0" x1="34.6" y1="35.7" x2="55.9" y2="35.7"/>
	<line class="st0" x1="4.1" y1="35.7" x2="25.4" y2="35.7"/>
	<path class="st0" d="M21,13.1c0.8-3.8,4.5-6.6,9-6.6c4.4,0,8.1,2.8,9,6.5"/>
	<path class="st0" d="M34.6,37.1c0,1.2-1,2.2-2.2,2.2h-4.8c-1.2,0-2.2-1-2.2-2.2v-2.9c0-1.2,1-2.2,2.2-2.2h4.8c1.2,0,2.2,1,2.2,2.2
		V37.1z"/>
</g>
</svg>
