<?xml version="1.0" encoding="utf-8"?>
<!-- Generator: Adobe Illustrator 17.0.0, SVG Export Plug-In . SVG Version: 6.00 Build 0)  -->
<!DOCTYPE svg PUBLIC "-//W3C//DTD SVG 1.1//EN" "http://www.w3.org/Graphics/SVG/1.1/DTD/svg11.dtd">
<svg version="1.1" id="Layer_1" xmlns="http://www.w3.org/2000/svg" xmlns:xlink="http://www.w3.org/1999/xlink" x="0px" y="0px"
	 width="60px" height="60px" viewBox="0 0 60 60" style="enable-background:new 0 0 60 60;" xml:space="preserve">
<style type="text/css">
	.st0{fill:none;stroke:#E63138;stroke-width:2;stroke-linecap:round;stroke-linejoin:round;stroke-miterlimit:10;}
</style>
<g>
	<path class="st0" d="M39.7,31.9c0,5-4.3,9.1-9.7,9.1l0,0c-5.3,0-9.7-4.1-9.7-9.1V13.1c0-5,4.3-9.1,9.7-9.1l0,0
		c5.3,0,9.7,4.1,9.7,9.1V31.9z"/>
	<path class="st0" d="M44.5,32.4c0,8-6.5,14.5-14.5,14.5s-14.5-6.5-14.5-14.5"/>
	<line class="st0" x1="29.2" y1="46.9" x2="29.2" y2="56"/>
	<line class="st0" x1="19.9" y1="56" x2="38.6" y2="56"/>
	<line class="st0" x1="20.3" y1="13.1" x2="24.4" y2="13.1"/>
	<line class="st0" x1="20.3" y1="17.5" x2="24.4" y2="17.5"/>
	<line class="st0" x1="20.3" y1="22" x2="24.4" y2="22"/>
	<line class="st0" x1="35.6" y1="13.1" x2="39.7" y2="13.1"/>
	<line class="st0" x1="35.6" y1="17.5" x2="39.7" y2="17.5"/>
	<line class="st0" x1="35.6" y1="22" x2="39.7" y2="22"/>
	<line class="st0" x1="20.3" y1="31.9" x2="39.7" y2="31.9"/>
</g>
</svg>
