<?xml version="1.0" encoding="utf-8"?>
<!-- Generator: Adobe Illustrator 17.0.0, SVG Export Plug-In . SVG Version: 6.00 Build 0)  -->
<!DOCTYPE svg PUBLIC "-//W3C//DTD SVG 1.1//EN" "http://www.w3.org/Graphics/SVG/1.1/DTD/svg11.dtd">
<svg version="1.1" id="Layer_1" xmlns="http://www.w3.org/2000/svg" xmlns:xlink="http://www.w3.org/1999/xlink" x="0px" y="0px"
	 width="60px" height="60px" viewBox="0 0 60 60" style="enable-background:new 0 0 60 60;" xml:space="preserve">
<style type="text/css">
	.st0{fill:none;stroke:#E63138;stroke-width:2;stroke-linecap:round;stroke-linejoin:round;stroke-miterlimit:10;}
</style>
<g>
	<path class="st0" d="M49,40.8V26.1c0-10.5-8.5-18.9-18.9-18.9l0,0c-10.5,0-18.9,8.5-18.9,18.9v14.8c0,0,0.8,5.2-6.7,9.4h51
		C55.5,50.2,49,46.8,49,40.8z"/>
	<path class="st0" d="M24.3,7.9c0-3.1,2.5-5.7,5.7-5.7s5.7,2.5,5.7,5.7"/>
	<path class="st0" d="M37.6,50.2c0,4.2-3.4,7.6-7.6,7.6s-7.6-3.4-7.6-7.6"/>
	<path class="st0" d="M18.5,26.5c-0.1-0.6-0.2-1.3-0.2-1.9c0-6.4,5.2-11.7,11.7-11.7"/>
	<line class="st0" x1="11.2" y1="40.8" x2="49.2" y2="40.8"/>
</g>
</svg>
