<?xml version="1.0" encoding="utf-8"?>
<!-- Generator: Adobe Illustrator 17.0.0, SVG Export Plug-In . SVG Version: 6.00 Build 0)  -->
<!DOCTYPE svg PUBLIC "-//W3C//DTD SVG 1.1//EN" "http://www.w3.org/Graphics/SVG/1.1/DTD/svg11.dtd">
<svg version="1.1" id="Layer_1" xmlns="http://www.w3.org/2000/svg" xmlns:xlink="http://www.w3.org/1999/xlink" x="0px" y="0px"
	 width="60px" height="60px" viewBox="0 0 60 60" style="enable-background:new 0 0 60 60;" xml:space="preserve">
<style type="text/css">
	.st0{fill:none;stroke:#FFFFFF;stroke-width:3;stroke-linecap:round;stroke-linejoin:round;stroke-miterlimit:10;}
</style>
<g>
	<path class="st0" d="M32.6,2.7C40.3,5.9,45.9,15.6,45.9,27c0,11.3-5.5,20.9-13.1,24.2"/>
	<path class="st0" d="M24.4,44.1c2.1,3.2,4.9,5.7,8,7.1"/>
	<path class="st0" d="M32.6,2.7c-7.1,3-12.4,11.7-13,22.2"/>
	<circle class="st0" cx="32.7" cy="27" r="24.5"/>
	<line class="st0" x1="32.7" y1="43.2" x2="32.7" y2="51.5"/>
	<line class="st0" x1="32.7" y1="2.7" x2="32.7" y2="23.1"/>
	<line class="st0" x1="10.1" y1="17.6" x2="55.8" y2="17.6"/>
	<line class="st0" x1="38.3" y1="36.1" x2="55.8" y2="36.1"/>
	<line class="st0" x1="10.1" y1="36.1" x2="16.4" y2="36.1"/>
	<circle class="st0" cx="27.3" cy="33.1" r="11.4"/>
	<line class="st0" x1="2.8" y1="57.5" x2="19.2" y2="41.1"/>
</g>
</svg>
