<?xml version="1.0" encoding="utf-8"?>
<!-- Generator: Adobe Illustrator 17.0.0, SVG Export Plug-In . SVG Version: 6.00 Build 0)  -->
<!DOCTYPE svg PUBLIC "-//W3C//DTD SVG 1.1//EN" "http://www.w3.org/Graphics/SVG/1.1/DTD/svg11.dtd">
<svg version="1.1" id="Layer_1" xmlns="http://www.w3.org/2000/svg" xmlns:xlink="http://www.w3.org/1999/xlink" x="0px" y="0px"
	 width="60px" height="60px" viewBox="0 0 60 60" style="enable-background:new 0 0 60 60;" xml:space="preserve">
<style type="text/css">
	
		.st0{fill-rule:evenodd;clip-rule:evenodd;fill:none;stroke:#FFFFFF;stroke-width:3;stroke-linecap:round;stroke-linejoin:round;stroke-miterlimit:10;}
	.st1{fill:none;stroke:#FFFFFF;stroke-width:3;stroke-linecap:round;stroke-linejoin:round;stroke-miterlimit:10;}
</style>
<g>
	<path class="st0" d="M51.6,34.8c0,0,2.7,0.6,2.7,3.3c0,2-1.4,3.8-4.5,3.8c1.6,0.2,2.5,1.6,2.5,3c0,1.9-1.6,3.4-3.6,3.4
		c-1,0-2.4-0.1-2.4-0.1h-0.2c1.8,0,3.2,1.4,3.2,3.1c0,1.7-1.5,3.1-3.2,3.1H29.9c0,0-6.3,0-9.6-2.8V30.6c0,0,3.8-5.5,7.5-8.4
		s4.7-9.9,5-13.1C33.1,5.9,36,5.5,37,5.7c1.7,0.2,3.2,2,3.6,4.2c0.3,2,0.6,5.1-2.5,14.2c-0.3,0.9-0.9,2.8,0.4,3h13.4
		c2.3,0,4.2,1.7,4.2,3.9S54,34.9,51.6,34.8z"/>
	<path class="st1" d="M20.3,53c0,0.7-0.6,1.3-1.4,1.3H5.3C4.6,54.4,4,53.8,4,53v-24c0-0.7,0.6-1.3,1.4-1.3h13.6
		c0.8,0,1.4,0.6,1.4,1.3V53z"/>
</g>
</svg>
