<?xml version="1.0" encoding="utf-8"?>
<!-- Generator: Adobe Illustrator 17.0.0, SVG Export Plug-In . SVG Version: 6.00 Build 0)  -->
<!DOCTYPE svg PUBLIC "-//W3C//DTD SVG 1.1//EN" "http://www.w3.org/Graphics/SVG/1.1/DTD/svg11.dtd">
<svg version="1.1" id="Layer_1" xmlns="http://www.w3.org/2000/svg" xmlns:xlink="http://www.w3.org/1999/xlink" x="0px" y="0px"
	 width="60px" height="60px" viewBox="0 0 60 60" style="enable-background:new 0 0 60 60;" xml:space="preserve">
<style type="text/css">
	.st0{fill:none;stroke:#FFFFFF;stroke-width:2;stroke-linecap:round;stroke-linejoin:round;stroke-miterlimit:10;}
</style>
<g>
	<path class="st0" d="M48.9,13.8l-4.4,2.3c-1.3,0.6-1.8,2.2-1.1,3.4l6.2,12.2c0.6,1.3,2.2,1.8,3.4,1.1l4.4-2.3L48.9,13.8z"/>
	<path class="st0" d="M17.3,15.1l-4.1-2.8L2.6,27.7l4.1,2.8c1.2,0.8,2.8,0.5,3.6-0.7L18,18.6C18.8,17.5,18.5,15.9,17.3,15.1z"/>
	<path class="st0" d="M32.2,24.1l0-1.6l-2,0.4c0,0-1.2,11.4-8.7,7l4.7-11.1l7.1-1.5c0.7-0.3,2.1-0.5,3.3,0c1.2,0.5,6.7,2.5,6.7,2.5
		l5.8,11.5L44.5,36"/>
	<g>
		<path class="st0" d="M17.1,37.8l0.5-0.5C17.5,37.5,17.2,37.6,17.1,37.8L17.1,37.8z"/>
		<path class="st0" d="M37.3,36.7l5.7,5.7c0.8,0.6,1.7,0.6,3.1-0.8c1.2-1.3,0.9-3,0.4-3.6L30.8,22.8l-0.5,0.1c0,0-1.2,11.4-8.7,7
			l4.7-11.1l0.3-0.1c-0.4-0.4-1.1-0.7-1.9-0.8c-1.5-0.1-4.2,0.4-5.4,0.4c-1,0-1.5,1-1.5,1l-7.1,10c-0.9,1.1,0.3,2.2,0.3,2.2l3.1,3.1
			l0,0c0.1-0.2,0.2-0.4,0.4-0.6c0.9-0.9,2.2-0.9,3.1,0c0.9,0.9,0.9,2.2,0,3.1l0.6-0.6c0.8-0.8,2.2-0.8,3,0c0.8,0.8,0.8,2.2,0,3
			l-1.1,1.1l0,0l1.3-1.3c0.8-0.8,2.2-0.8,3,0c0.8,0.8,0.8,2.2,0,3L24,43c0.8-0.8,2.1-0.8,2.9,0c0.8,0.8,0.8,2.1,0,2.9
			c-0.3,0.3-0.7,0.5-1.1,0.6l0,0l0.4,0.4c2.1,1.6,4.4-0.8,4.4-0.8"/>
		<path class="st0" d="M31.2,39.3l6.4,6.5c3.6,2.6,5.5-3.3,5.5-3.3"/>
		<path class="st0" d="M28,43.6l3.6,3.5c2.7,2.2,5.1-2.2,5.1-2.2"/>
		<path class="st0" d="M24,43l-0.8,0.8l0.3,0.3C23.5,43.7,23.7,43.3,24,43z"/>
	</g>
	<g>
		<path class="st0" d="M24.5,39.5c-0.8-0.8-2.2-0.8-3,0l-1.4,1.4l-0.7,0.7c-0.8,0.8-0.8,2.2,0,3c0.8,0.8,2.2,0.8,3,0l2-2
			C25.3,41.7,25.3,40.3,24.5,39.5z"/>
		<path class="st0" d="M21.2,36.7c-0.8-0.8-2.2-0.8-3,0l-0.6,0.6c0.9-0.9,0.9-2.2,0-3.1c-0.9-0.9-2.2-0.9-3.1,0
			c-0.9,0.9-0.9,2.2,0,3.1c0.9,0.9,2.2,0.9,3.1,0l-0.5,0.5c-0.8,0.8-0.8,2.2,0,3c0.8,0.8,2.2,0.8,3,0l1.1-1.1
			C22.1,38.9,22.1,37.5,21.2,36.7z"/>
		<circle class="st0" cx="25.5" cy="44.4" r="2.1"/>
	</g>
</g>
</svg>
