<?xml version="1.0" encoding="utf-8"?>
<!-- Generator: Adobe Illustrator 17.0.0, SVG Export Plug-In . SVG Version: 6.00 Build 0)  -->
<!DOCTYPE svg PUBLIC "-//W3C//DTD SVG 1.1//EN" "http://www.w3.org/Graphics/SVG/1.1/DTD/svg11.dtd">
<svg version="1.1" id="Layer_1" xmlns="http://www.w3.org/2000/svg" xmlns:xlink="http://www.w3.org/1999/xlink" x="0px" y="0px"
	 width="60px" height="60px" viewBox="0 0 60 60" style="enable-background:new 0 0 60 60;" xml:space="preserve">
<style type="text/css">
	.st0{fill:none;stroke:#E63138;stroke-width:2;stroke-linecap:round;stroke-linejoin:round;stroke-miterlimit:10;}
</style>
<g>
	<path class="st0" d="M45.2,29.2c6.1,1.2,10.9,5.6,10.9,10.6v14.4H27.6V39.8c0-5,4.5-9.3,10.5-10.5"/>
	<line class="st0" x1="32.4" y1="54.2" x2="32.4" y2="45.8"/>
	<line class="st0" x1="50.8" y1="54.2" x2="50.8" y2="45.8"/>
	<circle class="st0" cx="41.6" cy="21.9" r="8.2"/>
	<path class="st0" d="M41.7,30.1c2,0,2.9,0.2,2.9,0.6c0,1.4-0.2,2.7-0.8,3.5c-0.4,0.6-1.1,0.6-1.9,0.6c-0.8,0-1.5,0-2-0.5
		c-0.8-0.8-1.1-2.1-1.1-3.5C38.7,30.3,39.2,30.1,41.7,30.1z"/>
	<polyline class="st0" points="39.4,33.6 38.7,47.9 41.6,50.9 44.6,47.7 43.9,33.9 	"/>
	<path class="st0" d="M26.9,17.6c0,0.6,0.3,2.4,2.4,6.9c-4.9-2.6-6.6-3.5-7.2-3.5H6c-1.2,0-2.1-0.9-2.1-2.1v-11
		c0-1.2,0.9-2.1,2.1-2.1h18.8c1.2,0,2.1,0.9,2.1,2.1V17.6z"/>
	<line class="st0" x1="8.1" y1="9.8" x2="22.7" y2="9.8"/>
	<line class="st0" x1="8.1" y1="13.7" x2="22.7" y2="13.7"/>
	<line class="st0" x1="8.1" y1="17.4" x2="17.5" y2="17.4"/>
</g>
</svg>
