<?xml version="1.0" encoding="utf-8"?>
<!-- Generator: Adobe Illustrator 17.0.0, SVG Export Plug-In . SVG Version: 6.00 Build 0)  -->
<!DOCTYPE svg PUBLIC "-//W3C//DTD SVG 1.1//EN" "http://www.w3.org/Graphics/SVG/1.1/DTD/svg11.dtd">
<svg version="1.1" id="Layer_1" xmlns="http://www.w3.org/2000/svg" xmlns:xlink="http://www.w3.org/1999/xlink" x="0px" y="0px"
	 width="60px" height="60px" viewBox="0 0 60 60" style="enable-background:new 0 0 60 60;" xml:space="preserve">
<style type="text/css">
	.st0{fill:none;stroke:#949494;stroke-width:2;stroke-linecap:round;stroke-linejoin:round;stroke-miterlimit:10;}
</style>
<g>
	<path class="st0" d="M42,34.8l0.5,3.8c0,0,0.4,2.9,4.2,3.7c0.1,0,0.1,0,0,0c1.1,0.2,1.9,1.1,1.9,2.2c0,1.2-1,2.3-2.3,2.3H33.6
		c0,2.7-2.2,4.8-4.8,4.8c-2.7,0-4.8-2.2-4.8-4.8H11.6c-1.2,0-2.3-1-2.3-2.3c0-0.9,0.5-1.6,1.3-2c0,0,0,0,0,0c0,0,0,0,0,0
		c0.1-0.1,0.3-0.1,0.4-0.1c3.1-1.1,3.9-3.8,3.9-3.8l1.6-12.9c0.1-3.4,1.1-8.4,6.2-10.9c0,0,0.8-0.4,1-0.4c0.8-0.3,1.7-0.5,2.6-0.7
		V9.9c0-0.9,0.7-1.6,1.6-1.6h1.4C30.3,8.3,31,9,31,9.9v3.9c0.6,0.1,1.2,0.3,1.8,0.4c0,0,1.6,0.5,2,0.7"/>
	<circle class="st0" cx="39.8" cy="24.2" r="10.9"/>
</g>
</svg>
